<svg width="24" height="24" viewBox="0 0 24 24" fill="none" xmlns="http://www.w3.org/2000/svg">
<path fill-rule="evenodd" clip-rule="evenodd" d="M3.00001 11.995C2.99865 11.7164 3.11267 11.4374 3.34203 11.237L11.342 4.24697C11.7579 3.88358 12.3897 3.92615 12.753 4.34204C13.1164 4.75793 13.0739 5.38967 12.658 5.75306L6.6529 11L20 11C20.5523 11 21 11.4477 21 12C21 12.5523 20.5523 13 20 13L6.66998 13L12.659 18.2479C13.0744 18.6119 13.1161 19.2437 12.7521 19.659C12.3881 20.0744 11.7563 20.1161 11.341 19.7521L3.43845 12.8276C3.17382 12.6477 3 12.3441 3 12C3 11.9983 3 11.9967 3.00001 11.995Z" fill="#92929D"/>
</svg>
