<svg width="20" height="20" viewBox="0 0 20 20" fill="none" xmlns="http://www.w3.org/2000/svg">
<path fill-rule="evenodd" clip-rule="evenodd" d="M5 2H15C16.6569 2 18 3.34315 18 5V15C18 16.6569 16.6569 18 15 18H5C3.34315 18 2 16.6569 2 15V5C2 3.34315 3.34315 2 5 2Z" fill="#3DD598"/>
<path d="M7.36011 9.2801C6.96706 8.89211 6.33391 8.89621 5.94592 9.28925C5.55793 9.6823 5.56203 10.3155 5.95508 10.7034L8.49603 13.2117C8.91406 13.6243 9.59603 13.5895 9.96987 13.1365L14.0956 8.13648C14.4471 7.71049 14.3867 7.08021 13.9607 6.72871C13.5347 6.37721 12.9044 6.43759 12.5529 6.86358L9.12303 11.0203L7.36011 9.2801Z" fill="white"/>
</svg>
