<svg width="107" height="27" viewBox="0 0 107 27" fill="none" xmlns="http://www.w3.org/2000/svg">
<rect opacity="0.1" width="107" height="27" rx="5" fill="#3DD598"/>
<rect opacity="0.1" width="107" height="27" rx="5" fill="#3DD598"/>
<path d="M35.0244 12.627C35.0244 12.2806 34.8923 12.0072 34.6279 11.8066C34.3636 11.6016 34.0013 11.499 33.541 11.499C33.0944 11.499 32.7207 11.6152 32.4199 11.8477C32.1237 12.0801 31.9756 12.3535 31.9756 12.668H30.7178C30.7178 12.0254 30.9867 11.499 31.5244 11.0889C32.0622 10.6787 32.7344 10.4736 33.541 10.4736C34.4069 10.4736 35.0814 10.6605 35.5645 11.0342C36.0475 11.4033 36.2891 11.932 36.2891 12.6201C36.2891 12.9528 36.1888 13.2581 35.9883 13.5361C35.7878 13.8141 35.5029 14.0352 35.1338 14.1992C35.9951 14.4909 36.4258 15.0651 36.4258 15.9219C36.4258 16.6009 36.1637 17.1387 35.6396 17.5352C35.1156 17.9316 34.416 18.1299 33.541 18.1299C32.6888 18.1299 31.9847 17.9225 31.4287 17.5078C30.8773 17.0885 30.6016 16.5234 30.6016 15.8125H31.8594C31.8594 16.1725 32.0189 16.4824 32.3379 16.7422C32.6615 16.9974 33.0625 17.125 33.541 17.125C34.0241 17.125 34.4137 17.0133 34.71 16.79C35.0062 16.5667 35.1543 16.2773 35.1543 15.9219C35.1543 15.5072 35.029 15.2109 34.7783 15.0332C34.5322 14.8509 34.1471 14.7598 33.623 14.7598H32.3584V13.6934H33.7324C34.5938 13.6706 35.0244 13.3151 35.0244 12.627ZM42.7328 18C42.6599 17.8542 42.6007 17.5944 42.5551 17.2207C41.9672 17.8314 41.2654 18.1367 40.4496 18.1367C39.7204 18.1367 39.1212 17.9316 38.6518 17.5215C38.1869 17.1068 37.9545 16.5827 37.9545 15.9492C37.9545 15.179 38.2462 14.582 38.8295 14.1582C39.4174 13.7298 40.2423 13.5156 41.3041 13.5156H42.5346V12.9346C42.5346 12.4925 42.4024 12.1416 42.1381 11.8818C41.8738 11.6175 41.4841 11.4854 40.9691 11.4854C40.518 11.4854 40.1397 11.5993 39.8344 11.8271C39.529 12.055 39.3764 12.3307 39.3764 12.6543H38.1049C38.1049 12.2852 38.2348 11.9297 38.4945 11.5879C38.7589 11.2415 39.1143 10.9681 39.5609 10.7676C40.0121 10.5671 40.5066 10.4668 41.0443 10.4668C41.8965 10.4668 42.5642 10.681 43.0473 11.1094C43.5303 11.5332 43.781 12.1188 43.7992 12.8662V16.2705C43.7992 16.9495 43.8858 17.4896 44.059 17.8906V18H42.7328ZM40.6342 17.0361C41.0307 17.0361 41.4066 16.9336 41.7621 16.7285C42.1176 16.5234 42.3751 16.2568 42.5346 15.9287V14.4111H41.5434C39.9939 14.4111 39.2191 14.8646 39.2191 15.7715C39.2191 16.168 39.3513 16.4779 39.6156 16.7012C39.8799 16.9245 40.2195 17.0361 40.6342 17.0361ZM45.9979 18V10.6035H48.8826C49.867 10.6035 50.6212 10.7767 51.1453 11.123C51.674 11.4648 51.9383 11.9684 51.9383 12.6338C51.9383 12.9756 51.8357 13.2855 51.6307 13.5635C51.4256 13.8369 51.1225 14.0465 50.7215 14.1924C51.1681 14.2972 51.5258 14.5023 51.7947 14.8076C52.0682 15.113 52.2049 15.4775 52.2049 15.9014C52.2049 16.5804 51.9542 17.0999 51.4529 17.46C50.9562 17.82 50.2521 18 49.3406 18H45.9979ZM47.2625 14.7529V16.9814H49.3543C49.8829 16.9814 50.2771 16.8835 50.5369 16.6875C50.8012 16.4915 50.9334 16.2158 50.9334 15.8604C50.9334 15.1221 50.3911 14.7529 49.3064 14.7529H47.2625ZM47.2625 13.7412H48.8963C50.0812 13.7412 50.6736 13.3949 50.6736 12.7021C50.6736 12.0094 50.1131 11.6517 48.992 11.6289H47.2625V13.7412ZM57.049 18.1367C56.0464 18.1367 55.2307 17.8086 54.6018 17.1523C53.9729 16.4915 53.6584 15.6097 53.6584 14.5068V14.2744C53.6584 13.5407 53.7974 12.8867 54.0754 12.3125C54.3579 11.7337 54.7499 11.2826 55.2512 10.959C55.757 10.6309 56.3039 10.4668 56.8918 10.4668C57.8534 10.4668 58.6008 10.7835 59.134 11.417C59.6672 12.0505 59.9338 12.9574 59.9338 14.1377V14.6641H54.923C54.9413 15.3932 55.1532 15.9834 55.5588 16.4346C55.9689 16.8812 56.4885 17.1045 57.1174 17.1045C57.564 17.1045 57.9423 17.0133 58.2521 16.8311C58.562 16.6488 58.8332 16.4072 59.0656 16.1064L59.8381 16.708C59.2183 17.6605 58.2886 18.1367 57.049 18.1367ZM56.8918 11.5059C56.3814 11.5059 55.953 11.6927 55.6066 12.0664C55.2603 12.4355 55.0461 12.9551 54.9641 13.625H58.6691V13.5293C58.6327 12.8867 58.4595 12.39 58.1496 12.0391C57.8397 11.6836 57.4204 11.5059 56.8918 11.5059ZM67.7516 14.3838C67.7516 15.5094 67.4941 16.4163 66.9791 17.1045C66.4641 17.7926 65.7669 18.1367 64.8873 18.1367C63.9895 18.1367 63.2831 17.8519 62.7682 17.2822V20.8438H61.5035V10.6035H62.6588L62.7203 11.4238C63.2353 10.7858 63.9508 10.4668 64.8668 10.4668C65.7555 10.4668 66.4573 10.8018 66.9723 11.4717C67.4918 12.1416 67.7516 13.0736 67.7516 14.2676V14.3838ZM66.4869 14.2402C66.4869 13.4062 66.3092 12.7477 65.9537 12.2646C65.5982 11.7816 65.1106 11.54 64.4908 11.54C63.7252 11.54 63.151 11.8796 62.7682 12.5586V16.0928C63.1464 16.7673 63.7252 17.1045 64.5045 17.1045C65.1106 17.1045 65.5914 16.8652 65.9469 16.3867C66.3069 15.9036 66.4869 15.1882 66.4869 14.2402ZM70.8457 10.6035V16.9678H73.5527V10.6035H74.8174V16.9678H77.5176V10.6035H78.7891V18H69.5742V10.6035H70.8457ZM83.9545 18.1367C82.9519 18.1367 82.1361 17.8086 81.5072 17.1523C80.8783 16.4915 80.5639 15.6097 80.5639 14.5068V14.2744C80.5639 13.5407 80.7029 12.8867 80.9809 12.3125C81.2634 11.7337 81.6553 11.2826 82.1566 10.959C82.6625 10.6309 83.2094 10.4668 83.7973 10.4668C84.7589 10.4668 85.5062 10.7835 86.0395 11.417C86.5727 12.0505 86.8393 12.9574 86.8393 14.1377V14.6641H81.8285C81.8467 15.3932 82.0587 15.9834 82.4643 16.4346C82.8744 16.8812 83.3939 17.1045 84.0229 17.1045C84.4695 17.1045 84.8477 17.0133 85.1576 16.8311C85.4675 16.6488 85.7387 16.4072 85.9711 16.1064L86.7436 16.708C86.1238 17.6605 85.1941 18.1367 83.9545 18.1367ZM83.7973 11.5059C83.2868 11.5059 82.8585 11.6927 82.5121 12.0664C82.1658 12.4355 81.9516 12.9551 81.8695 13.625H85.5746V13.5293C85.5381 12.8867 85.365 12.39 85.0551 12.0391C84.7452 11.6836 84.3259 11.5059 83.7973 11.5059ZM94.452 18H93.1873V14.8418H89.7898V18H88.5184V10.6035H89.7898V13.8096H93.1873V10.6035H94.452V18Z" fill="#3DD598"/>
<path d="M16.5041 19.8364C20.3471 19.8364 23.5083 16.8756 23.5083 13.1682C23.5083 9.46081 20.3471 6.5 16.5041 6.5C12.6612 6.5 9.5 9.46081 9.5 13.1682C9.5 16.8756 12.6612 19.8364 16.5041 19.8364Z" stroke="#3DD598"/>
<path d="M16.5041 8.90503V13.1682L14.3538 14.9867" stroke="#3DD598" stroke-linecap="round" stroke-linejoin="round"/>
</svg>
