<svg width="114" height="27" viewBox="0 0 114 27" fill="none" xmlns="http://www.w3.org/2000/svg">
<path d="M17.6414 21C21.5564 21 24.7828 18.0061 24.7828 14.25C24.7828 10.4939 21.5564 7.5 17.6414 7.5C13.7263 7.5 10.5 10.4939 10.5 14.25C10.5 18.0061 13.7263 21 17.6414 21Z" stroke="#FF974A"/>
<path d="M17.6414 9.93018V14.2499L15.4457 16.0925" stroke="#FF974A" stroke-linecap="round" stroke-linejoin="round"/>
<rect opacity="0.1" width="114" height="27" rx="5" fill="#FF974A"/>
<path d="M32.0732 18V10.6035H34.958C35.9424 10.6035 36.6966 10.7767 37.2207 11.123C37.7493 11.4648 38.0137 11.9684 38.0137 12.6338C38.0137 12.9756 37.9111 13.2855 37.7061 13.5635C37.501 13.8369 37.1979 14.0465 36.7969 14.1924C37.2435 14.2972 37.6012 14.5023 37.8701 14.8076C38.1436 15.113 38.2803 15.4775 38.2803 15.9014C38.2803 16.5804 38.0296 17.0999 37.5283 17.46C37.0316 17.82 36.3275 18 35.416 18H32.0732ZM33.3379 14.7529V16.9814H35.4297C35.9583 16.9814 36.3525 16.8835 36.6123 16.6875C36.8766 16.4915 37.0088 16.2158 37.0088 15.8604C37.0088 15.1221 36.4665 14.7529 35.3818 14.7529H33.3379ZM33.3379 13.7412H34.9717C36.1566 13.7412 36.749 13.3949 36.749 12.7021C36.749 12.0094 36.1885 11.6517 35.0674 11.6289H33.3379V13.7412ZM49.4775 18H48.2129V11.6494H44.8086V18H43.5371V10.6035H49.4775V18ZM57.7559 14.3838C57.7559 15.5094 57.4984 16.4163 56.9834 17.1045C56.4684 17.7926 55.7712 18.1367 54.8916 18.1367C53.9938 18.1367 53.2874 17.8519 52.7725 17.2822V20.8438H51.5078V10.6035H52.6631L52.7246 11.4238C53.2396 10.7858 53.9551 10.4668 54.8711 10.4668C55.7598 10.4668 56.4616 10.8018 56.9766 11.4717C57.4961 12.1416 57.7559 13.0736 57.7559 14.2676V14.3838ZM56.4912 14.2402C56.4912 13.4062 56.3135 12.7477 55.958 12.2646C55.6025 11.7816 55.1149 11.54 54.4951 11.54C53.7295 11.54 53.1553 11.8796 52.7725 12.5586V16.0928C53.1507 16.7673 53.7295 17.1045 54.5088 17.1045C55.1149 17.1045 55.5957 16.8652 55.9512 16.3867C56.3112 15.9036 56.4912 15.1882 56.4912 14.2402ZM59.0342 14.2334C59.0342 13.5088 59.1755 12.8571 59.458 12.2783C59.7451 11.6995 60.1416 11.2529 60.6475 10.9385C61.1579 10.624 61.7389 10.4668 62.3906 10.4668C63.3978 10.4668 64.2113 10.8154 64.8311 11.5127C65.4554 12.21 65.7676 13.1374 65.7676 14.2949V14.3838C65.7676 15.1038 65.6286 15.751 65.3506 16.3252C65.0771 16.8949 64.6829 17.3392 64.168 17.6582C63.6576 17.9772 63.0697 18.1367 62.4043 18.1367C61.4017 18.1367 60.5882 17.7881 59.9639 17.0908C59.3441 16.3936 59.0342 15.4707 59.0342 14.3223V14.2334ZM60.3057 14.3838C60.3057 15.2041 60.4948 15.8626 60.873 16.3594C61.2559 16.8561 61.7663 17.1045 62.4043 17.1045C63.0469 17.1045 63.5573 16.8538 63.9355 16.3525C64.3138 15.8467 64.5029 15.1403 64.5029 14.2334C64.5029 13.4222 64.3092 12.766 63.9219 12.2646C63.5391 11.7588 63.0286 11.5059 62.3906 11.5059C61.7663 11.5059 61.2627 11.7542 60.8799 12.251C60.4971 12.7477 60.3057 13.4587 60.3057 14.3838ZM67.4629 10.6035H68.7344V16.9678H72.1387V10.6035H73.4033V16.9678H74.2852L74.1621 20.1943H73.0273V18H67.4629V10.6035ZM78.7217 18.1367C77.7191 18.1367 76.9033 17.8086 76.2744 17.1523C75.6455 16.4915 75.3311 15.6097 75.3311 14.5068V14.2744C75.3311 13.5407 75.4701 12.8867 75.748 12.3125C76.0306 11.7337 76.4225 11.2826 76.9238 10.959C77.4297 10.6309 77.9766 10.4668 78.5645 10.4668C79.526 10.4668 80.2734 10.7835 80.8066 11.417C81.3398 12.0505 81.6064 12.9574 81.6064 14.1377V14.6641H76.5957C76.6139 15.3932 76.8258 15.9834 77.2314 16.4346C77.6416 16.8812 78.1611 17.1045 78.79 17.1045C79.2367 17.1045 79.6149 17.0133 79.9248 16.8311C80.2347 16.6488 80.5059 16.4072 80.7383 16.1064L81.5107 16.708C80.891 17.6605 79.9613 18.1367 78.7217 18.1367ZM78.5645 11.5059C78.054 11.5059 77.6257 11.6927 77.2793 12.0664C76.9329 12.4355 76.7188 12.9551 76.6367 13.625H80.3418V13.5293C80.3053 12.8867 80.1322 12.39 79.8223 12.0391C79.5124 11.6836 79.0931 11.5059 78.5645 11.5059ZM86.043 17.1045C86.4941 17.1045 86.8883 16.9678 87.2256 16.6943C87.5628 16.4209 87.7497 16.0791 87.7861 15.6689H88.9824C88.9596 16.0928 88.8138 16.4961 88.5449 16.8789C88.276 17.2617 87.916 17.5671 87.4648 17.7949C87.0182 18.0228 86.5443 18.1367 86.043 18.1367C85.0358 18.1367 84.2337 17.8018 83.6367 17.1318C83.0443 16.4574 82.748 15.5368 82.748 14.3701V14.1582C82.748 13.4382 82.8802 12.7979 83.1445 12.2373C83.4089 11.6768 83.7871 11.2415 84.2793 10.9316C84.776 10.6217 85.3617 10.4668 86.0361 10.4668C86.8656 10.4668 87.5537 10.7152 88.1006 11.2119C88.652 11.7087 88.946 12.3535 88.9824 13.1465H87.7861C87.7497 12.668 87.5674 12.276 87.2393 11.9707C86.9157 11.6608 86.5146 11.5059 86.0361 11.5059C85.3936 11.5059 84.8945 11.7383 84.5391 12.2031C84.1882 12.6634 84.0127 13.3311 84.0127 14.2061V14.4453C84.0127 15.2975 84.1882 15.9538 84.5391 16.4141C84.89 16.8743 85.3913 17.1045 86.043 17.1045ZM93.3711 17.1045C93.8223 17.1045 94.2165 16.9678 94.5537 16.6943C94.891 16.4209 95.0778 16.0791 95.1143 15.6689H96.3105C96.2878 16.0928 96.1419 16.4961 95.873 16.8789C95.6042 17.2617 95.2441 17.5671 94.793 17.7949C94.3464 18.0228 93.8724 18.1367 93.3711 18.1367C92.3639 18.1367 91.5618 17.8018 90.9648 17.1318C90.3724 16.4574 90.0762 15.5368 90.0762 14.3701V14.1582C90.0762 13.4382 90.2083 12.7979 90.4727 12.2373C90.737 11.6768 91.1152 11.2415 91.6074 10.9316C92.1042 10.6217 92.6898 10.4668 93.3643 10.4668C94.1937 10.4668 94.8818 10.7152 95.4287 11.2119C95.9801 11.7087 96.2741 12.3535 96.3105 13.1465H95.1143C95.0778 12.668 94.8955 12.276 94.5674 11.9707C94.2438 11.6608 93.8428 11.5059 93.3643 11.5059C92.7217 11.5059 92.2227 11.7383 91.8672 12.2031C91.5163 12.6634 91.3408 13.3311 91.3408 14.2061V14.4453C91.3408 15.2975 91.5163 15.9538 91.8672 16.4141C92.2181 16.8743 92.7194 17.1045 93.3711 17.1045ZM100.802 18.1367C99.7992 18.1367 98.9834 17.8086 98.3545 17.1523C97.7256 16.4915 97.4111 15.6097 97.4111 14.5068V14.2744C97.4111 13.5407 97.5501 12.8867 97.8281 12.3125C98.1107 11.7337 98.5026 11.2826 99.0039 10.959C99.5098 10.6309 100.057 10.4668 100.645 10.4668C101.606 10.4668 102.354 10.7835 102.887 11.417C103.42 12.0505 103.687 12.9574 103.687 14.1377V14.6641H98.6758C98.694 15.3932 98.9059 15.9834 99.3115 16.4346C99.7217 16.8812 100.241 17.1045 100.87 17.1045C101.317 17.1045 101.695 17.0133 102.005 16.8311C102.315 16.6488 102.586 16.4072 102.818 16.1064L103.591 16.708C102.971 17.6605 102.041 18.1367 100.802 18.1367ZM100.645 11.5059C100.134 11.5059 99.7057 11.6927 99.3594 12.0664C99.013 12.4355 98.7988 12.9551 98.7168 13.625H102.422V13.5293C102.385 12.8867 102.212 12.39 101.902 12.0391C101.592 11.6836 101.173 11.5059 100.645 11.5059Z" fill="#FF974A"/>
</svg>
