<svg width="20" height="20" viewBox="0 0 20 20" fill="none" xmlns="http://www.w3.org/2000/svg">
<path fill-rule="evenodd" clip-rule="evenodd" d="M5.85467 7.4364V5.91176C5.85467 3.56975 7.73434 1.66663 10.0588 1.66663C12.3832 1.66663 14.2628 3.56975 14.2628 5.91176V7.4364H15.4528C16.1291 7.4364 16.6667 7.99131 16.6667 8.66306V17.1066C16.6667 17.7784 16.1291 18.3333 15.4528 18.3333H4.54723C3.87087 18.3333 3.33334 17.7784 3.33334 17.1066V8.66306C3.33334 7.99131 3.87087 7.4364 4.54723 7.4364H5.85467ZM4.85233 8.95154V16.8181H15.1477V8.95154H4.85233ZM12.7439 7.41307V5.91178C12.7439 4.40154 11.5392 3.18179 10.0588 3.18179C8.57841 3.18179 7.37369 4.40154 7.37369 5.91178V7.41307H12.7439Z" fill="#92929D"/>
</svg>
