<svg width="20" height="20" viewBox="0 0 20 20" fill="none" xmlns="http://www.w3.org/2000/svg">
<path fill-rule="evenodd" clip-rule="evenodd" d="M3.3333 3.33337H16.6666C18.0473 3.33337 19.1666 4.45266 19.1666 5.83337V6.18853C19.1667 6.19649 19.1667 6.20446 19.1666 6.21241V15C19.1666 16.3808 18.0473 17.5 16.6666 17.5H3.3333C1.95259 17.5 0.8333 16.3808 0.8333 15V6.21015C0.833226 6.2037 0.833226 6.19725 0.8333 6.19079V5.83337C0.8333 4.45266 1.95259 3.33337 3.3333 3.33337ZM2.49997 7.80173V15C2.49997 15.4603 2.87306 15.8334 3.3333 15.8334H16.6666C17.1269 15.8334 17.5 15.4603 17.5 15V7.80175L11.4336 12.0482C10.5728 12.6507 9.42712 12.6507 8.56633 12.0482L2.49997 7.80173ZM17.4975 5.76904L10.4779 10.6828C10.1909 10.8837 9.80903 10.8837 9.5221 10.6828L2.50241 5.76902C2.53527 5.33886 2.89472 5.00004 3.3333 5.00004H16.6666C17.1052 5.00004 17.4647 5.33886 17.4975 5.76904Z" fill="#92929D"/>
</svg>
